<svg width="199" height="71" viewBox="0 0 199 71" fill="none" xmlns="http://www.w3.org/2000/svg">
<path d="M60.6023 10.3977C55.5032 5.29864 48.9721 1.87335 41.8783 0.577716C34.7844 -0.717919 27.4642 0.177546 20.8919 3.14494C14.3195 6.11233 8.80666 11.0109 5.08705 17.1888C1.36744 23.3666 -0.382545 30.5308 0.0699839 37.7278C0.522513 44.9248 3.1561 51.8133 7.62025 57.4766C12.0844 63.1399 18.1674 67.3093 25.0597 69.4301C31.952 71.5509 39.3267 71.5223 46.2024 69.3483C53.0781 67.1743 59.1287 62.9579 63.5489 57.2603L55.9269 51.3472C52.7078 55.4965 48.3014 58.5672 43.2942 60.1504C38.2869 61.7337 32.9161 61.7544 27.8967 60.21C22.8774 58.6655 18.4473 55.629 15.1963 51.5047C11.9452 47.3803 10.0273 42.3637 9.69773 37.1224C9.36817 31.8811 10.6426 26.6638 13.3515 22.1647C16.0603 17.6656 20.0751 14.0981 24.8615 11.9371C29.6479 9.77606 34.9789 9.12393 40.1451 10.0675C45.3112 11.0111 50.0676 13.5056 53.781 17.219L60.6023 10.3977Z" fill="#FF9247"/>
<path d="M41 26.04V28.3H35.18V31.88H39.64V34.1H35.18V40H32.38V26.04H41ZM47.9055 40.18C46.8388 40.18 45.8788 39.9467 45.0255 39.48C44.1722 39 43.4988 38.3267 43.0055 37.46C42.5255 36.5934 42.2855 35.5934 42.2855 34.46C42.2855 33.3267 42.5322 32.3267 43.0255 31.46C43.5322 30.5934 44.2188 29.9267 45.0855 29.46C45.9522 28.98 46.9188 28.74 47.9855 28.74C49.0522 28.74 50.0188 28.98 50.8855 29.46C51.7522 29.9267 52.4322 30.5934 52.9255 31.46C53.4322 32.3267 53.6855 33.3267 53.6855 34.46C53.6855 35.5934 53.4255 36.5934 52.9055 37.46C52.3988 38.3267 51.7055 39 50.8255 39.48C49.9588 39.9467 48.9855 40.18 47.9055 40.18ZM47.9055 37.74C48.4122 37.74 48.8855 37.62 49.3255 37.38C49.7788 37.1267 50.1388 36.7534 50.4055 36.26C50.6722 35.7667 50.8055 35.1667 50.8055 34.46C50.8055 33.4067 50.5255 32.6 49.9655 32.04C49.4188 31.4667 48.7455 31.18 47.9455 31.18C47.1455 31.18 46.4722 31.4667 45.9255 32.04C45.3922 32.6 45.1255 33.4067 45.1255 34.46C45.1255 35.5134 45.3855 36.3267 45.9055 36.9C46.4388 37.46 47.1055 37.74 47.9055 37.74ZM60.6594 40.18C59.5927 40.18 58.6327 39.9467 57.7794 39.48C56.9261 39 56.2527 38.3267 55.7594 37.46C55.2794 36.5934 55.0394 35.5934 55.0394 34.46C55.0394 33.3267 55.2861 32.3267 55.7794 31.46C56.2861 30.5934 56.9727 29.9267 57.8394 29.46C58.7061 28.98 59.6727 28.74 60.7394 28.74C61.8061 28.74 62.7727 28.98 63.6394 29.46C64.5061 29.9267 65.1861 30.5934 65.6794 31.46C66.1861 32.3267 66.4394 33.3267 66.4394 34.46C66.4394 35.5934 66.1794 36.5934 65.6594 37.46C65.1527 38.3267 64.4594 39 63.5794 39.48C62.7127 39.9467 61.7394 40.18 60.6594 40.18ZM60.6594 37.74C61.1661 37.74 61.6394 37.62 62.0794 37.38C62.5327 37.1267 62.8927 36.7534 63.1594 36.26C63.4261 35.7667 63.5594 35.1667 63.5594 34.46C63.5594 33.4067 63.2794 32.6 62.7194 32.04C62.1727 31.4667 61.4994 31.18 60.6994 31.18C59.8994 31.18 59.2261 31.4667 58.6794 32.04C58.1461 32.6 57.8794 33.4067 57.8794 34.46C57.8794 35.5134 58.1394 36.3267 58.6594 36.9C59.1927 37.46 59.8594 37.74 60.6594 37.74ZM67.7733 34.42C67.7733 33.3 67.9933 32.3067 68.4333 31.44C68.8866 30.5734 69.5 29.9067 70.2733 29.44C71.0466 28.9734 71.9066 28.74 72.8533 28.74C73.5733 28.74 74.26 28.9 74.9133 29.22C75.5666 29.5267 76.0866 29.94 76.4733 30.46V25.2H79.3133V40H76.4733V38.36C76.1266 38.9067 75.64 39.3467 75.0133 39.68C74.3866 40.0134 73.66 40.18 72.8333 40.18C71.9 40.18 71.0466 39.94 70.2733 39.46C69.5 38.98 68.8866 38.3067 68.4333 37.44C67.9933 36.56 67.7733 35.5534 67.7733 34.42ZM76.4933 34.46C76.4933 33.78 76.36 33.2 76.0933 32.72C75.8266 32.2267 75.4666 31.8534 75.0133 31.6C74.56 31.3334 74.0733 31.2 73.5533 31.2C73.0333 31.2 72.5533 31.3267 72.1133 31.58C71.6733 31.8334 71.3133 32.2067 71.0333 32.7C70.7666 33.18 70.6333 33.7534 70.6333 34.42C70.6333 35.0867 70.7666 35.6734 71.0333 36.18C71.3133 36.6734 71.6733 37.0534 72.1133 37.32C72.5666 37.5867 73.0466 37.72 73.5533 37.72C74.0733 37.72 74.56 37.5934 75.0133 37.34C75.4666 37.0734 75.8266 36.7 76.0933 36.22C76.36 35.7267 76.4933 35.14 76.4933 34.46Z" fill="#FF9247"/>
<path d="M91.6336 40.14C90.6603 40.14 89.7803 39.9734 88.9936 39.64C88.2203 39.3067 87.6069 38.8267 87.1536 38.2C86.7003 37.5734 86.4669 36.8334 86.4536 35.98H89.4536C89.4936 36.5534 89.6936 37.0067 90.0536 37.34C90.4269 37.6734 90.9336 37.84 91.5736 37.84C92.2269 37.84 92.7403 37.6867 93.1136 37.38C93.4869 37.06 93.6736 36.6467 93.6736 36.14C93.6736 35.7267 93.5469 35.3867 93.2936 35.12C93.0403 34.8534 92.7203 34.6467 92.3336 34.5C91.9603 34.34 91.4403 34.1667 90.7736 33.98C89.8669 33.7134 89.1269 33.4534 88.5536 33.2C87.9936 32.9334 87.5069 32.54 87.0936 32.02C86.6936 31.4867 86.4936 30.78 86.4936 29.9C86.4936 29.0734 86.7003 28.3534 87.1136 27.74C87.5269 27.1267 88.1069 26.66 88.8536 26.34C89.6003 26.0067 90.4536 25.84 91.4136 25.84C92.8536 25.84 94.0203 26.1934 94.9136 26.9C95.8203 27.5934 96.3203 28.5667 96.4136 29.82H93.3336C93.3069 29.34 93.1003 28.9467 92.7136 28.64C92.3403 28.32 91.8403 28.16 91.2136 28.16C90.6669 28.16 90.2269 28.3 89.8936 28.58C89.5736 28.86 89.4136 29.2667 89.4136 29.8C89.4136 30.1734 89.5336 30.4867 89.7736 30.74C90.0269 30.98 90.3336 31.18 90.6936 31.34C91.0669 31.4867 91.5869 31.66 92.2536 31.86C93.1603 32.1267 93.9003 32.3934 94.4736 32.66C95.0469 32.9267 95.5403 33.3267 95.9536 33.86C96.3669 34.3934 96.5736 35.0934 96.5736 35.96C96.5736 36.7067 96.3803 37.4 95.9936 38.04C95.6069 38.68 95.0403 39.1934 94.2936 39.58C93.5469 39.9534 92.6603 40.14 91.6336 40.14ZM109.301 34.22C109.301 34.62 109.274 34.98 109.221 35.3H101.121C101.188 36.1 101.468 36.7267 101.961 37.18C102.454 37.6334 103.061 37.86 103.781 37.86C104.821 37.86 105.561 37.4134 106.001 36.52H109.021C108.701 37.5867 108.088 38.4667 107.181 39.16C106.274 39.84 105.161 40.18 103.841 40.18C102.774 40.18 101.814 39.9467 100.961 39.48C100.121 39 99.4611 38.3267 98.9811 37.46C98.5144 36.5934 98.2811 35.5934 98.2811 34.46C98.2811 33.3134 98.5144 32.3067 98.9811 31.44C99.4478 30.5734 100.101 29.9067 100.941 29.44C101.781 28.9734 102.748 28.74 103.841 28.74C104.894 28.74 105.834 28.9667 106.661 29.42C107.501 29.8734 108.148 30.52 108.601 31.36C109.068 32.1867 109.301 33.14 109.301 34.22ZM106.401 33.42C106.388 32.7 106.128 32.1267 105.621 31.7C105.114 31.26 104.494 31.04 103.761 31.04C103.068 31.04 102.481 31.2534 102.001 31.68C101.534 32.0934 101.248 32.6734 101.141 33.42H106.401ZM114.145 30.64C114.505 30.0534 114.972 29.5934 115.545 29.26C116.132 28.9267 116.798 28.76 117.545 28.76V31.7H116.805C115.925 31.7 115.258 31.9067 114.805 32.32C114.365 32.7334 114.145 33.4534 114.145 34.48V40H111.345V28.92H114.145V30.64ZM124.051 37.42L126.851 28.92H129.831L125.731 40H122.331L118.251 28.92H121.251L124.051 37.42ZM132.823 27.6C132.33 27.6 131.917 27.4467 131.583 27.14C131.263 26.82 131.103 26.4267 131.103 25.96C131.103 25.4934 131.263 25.1067 131.583 24.8C131.917 24.48 132.33 24.32 132.823 24.32C133.317 24.32 133.723 24.48 134.043 24.8C134.377 25.1067 134.543 25.4934 134.543 25.96C134.543 26.4267 134.377 26.82 134.043 27.14C133.723 27.4467 133.317 27.6 132.823 27.6ZM134.203 28.92V40H131.403V28.92H134.203ZM136.25 34.46C136.25 33.3134 136.483 32.3134 136.95 31.46C137.417 30.5934 138.063 29.9267 138.89 29.46C139.717 28.98 140.663 28.74 141.73 28.74C143.103 28.74 144.237 29.0867 145.13 29.78C146.037 30.46 146.643 31.42 146.95 32.66H143.93C143.77 32.18 143.497 31.8067 143.11 31.54C142.737 31.26 142.27 31.12 141.71 31.12C140.91 31.12 140.277 31.4134 139.81 32C139.343 32.5734 139.11 33.3934 139.11 34.46C139.11 35.5134 139.343 36.3334 139.81 36.92C140.277 37.4934 140.91 37.78 141.71 37.78C142.843 37.78 143.583 37.2734 143.93 36.26H146.95C146.643 37.46 146.037 38.4134 145.13 39.12C144.223 39.8267 143.09 40.18 141.73 40.18C140.663 40.18 139.717 39.9467 138.89 39.48C138.063 39 137.417 38.3334 136.95 37.48C136.483 36.6134 136.25 35.6067 136.25 34.46ZM159.301 34.22C159.301 34.62 159.274 34.98 159.221 35.3H151.121C151.188 36.1 151.468 36.7267 151.961 37.18C152.454 37.6334 153.061 37.86 153.781 37.86C154.821 37.86 155.561 37.4134 156.001 36.52H159.021C158.701 37.5867 158.088 38.4667 157.181 39.16C156.274 39.84 155.161 40.18 153.841 40.18C152.774 40.18 151.814 39.9467 150.961 39.48C150.121 39 149.461 38.3267 148.981 37.46C148.514 36.5934 148.281 35.5934 148.281 34.46C148.281 33.3134 148.514 32.3067 148.981 31.44C149.448 30.5734 150.101 29.9067 150.941 29.44C151.781 28.9734 152.748 28.74 153.841 28.74C154.894 28.74 155.834 28.9667 156.661 29.42C157.501 29.8734 158.148 30.52 158.601 31.36C159.068 32.1867 159.301 33.14 159.301 34.22ZM156.401 33.42C156.388 32.7 156.128 32.1267 155.621 31.7C155.114 31.26 154.494 31.04 153.761 31.04C153.068 31.04 152.481 31.2534 152.001 31.68C151.534 32.0934 151.248 32.6734 151.141 33.42H156.401Z" fill="white"/>
</svg>
